<svg width="48" height="48" viewBox="0 0 48 48" fill="none" xmlns="http://www.w3.org/2000/svg">
    <rect width="48" height="48" rx="4" fill="#333940"/>
    <path d="M18.2864 21.2962C18.1887 21.3547 18.0812 21.3826 17.9753 21.3826C17.7645 21.3826 17.5595 21.2725 17.4449 21.0744C17.2726 20.7768 17.3704 20.3938 17.663 20.2188L20.1717 18.7182C20.4641 18.5431 20.8411 18.6424 21.0133 18.94C21.1855 19.2375 21.0878 19.6205 20.7951 19.7956L18.2864 21.2962Z"
          fill="#4C5865"/>
    <path fill-rule="evenodd" clip-rule="evenodd"
          d="M41.9907 26.3429L41.485 23.4084C41.4382 23.1367 41.2217 22.9283 40.9524 22.8956L38.3119 22.575L37.3946 20.8515C37.6912 20.3357 37.7888 19.7216 37.662 19.1327C37.5184 18.4658 37.1002 17.8918 36.5143 17.5579L33.9679 16.1062C33.6719 15.9374 33.2972 16.0445 33.131 16.3456C32.965 16.6467 33.0704 17.0276 33.3666 17.1964L35.913 18.6482C36.4988 18.9822 36.6693 19.7603 36.272 20.3158C35.9796 20.7245 35.4491 20.89 34.9812 20.7179L27.7304 18.0497C28.241 17.7093 28.6629 17.2193 28.9235 16.6086C29.1707 16.0291 29.248 15.4044 29.1545 14.7952L31.1873 15.9541C31.2824 16.0083 31.3856 16.0341 31.4874 16.0341C31.7026 16.0341 31.9115 15.919 32.0243 15.7146C32.1903 15.4136 32.0848 15.0327 31.7888 14.8638L27.7962 12.5876C27.623 12.4661 27.4368 12.3609 27.2394 12.2739C26.445 11.9237 25.564 11.9088 24.7587 12.2322C23.9533 12.5556 23.3201 13.1784 22.9755 13.9859C22.893 14.1793 22.8303 14.3765 22.7863 14.5751L11.2003 19.7555C9.51922 19.7983 7.94687 20.6511 6.9729 22.0553C6.77724 22.3374 6.84364 22.7273 7.12119 22.9262C7.39882 23.1252 7.78228 23.0576 7.97786 22.7755C8.74518 21.6692 9.99465 21.0074 11.3221 21.0037L11.3337 21.0038L11.3421 21.0037C13.601 21.0084 15.4372 22.8781 15.4372 25.1757C15.4372 27.4761 13.5962 29.3476 11.3334 29.3476C9.07052 29.3476 7.22955 27.4761 7.22955 25.1757C7.22955 25.0658 7.2348 24.9487 7.24578 24.8177C7.27447 24.4738 7.02331 24.1713 6.68502 24.1422C6.34755 24.1124 6.04926 24.3682 6.02057 24.7122C6.00672 24.8786 6 25.0302 6 25.1757C6 27.1764 7.07143 28.9274 8.66165 29.8669L11.4712 36H12.8274L10.3065 30.4969C10.6388 30.563 10.9822 30.5978 11.3334 30.5978C12.8413 30.5978 14.205 29.9583 15.176 28.9321L18.37 36H19.7234L16.0608 27.8952L25.7993 18.6683L34.5628 21.8932C34.822 21.9886 35.0905 22.0344 35.3567 22.0344C35.7469 22.0344 36.1319 21.9357 36.4748 21.7498L37.2307 23.1698L36.0505 25.5922C35.93 25.8394 35.9832 26.1375 36.1814 26.326L38.3211 28.3615C38.4396 28.4743 38.5905 28.5302 38.741 28.5302C38.9052 28.5302 39.069 28.4637 39.1901 28.3322C39.4221 28.0802 39.4092 27.6847 39.1611 27.4488L37.3551 25.7307L38.2812 23.8299L40.3529 24.0816L40.7797 26.5585C40.8384 26.8986 41.1572 27.1261 41.4914 27.0664C41.8257 27.0068 42.0493 26.6828 41.9907 26.3429ZM25.9522 13.2518C26.7547 13.2518 27.5093 13.7441 27.8209 14.5458C28.3746 15.9713 27.2421 17.4886 25.7426 17.332C24.5048 17.1521 23.8482 16.1142 23.9471 15.0951C23.9487 15.0834 23.9499 15.0717 23.9508 15.06C24.0687 14.0285 24.9309 13.2518 25.9522 13.2518ZM13.3542 20.1579L22.7725 15.9467C22.9625 16.8999 23.5628 17.7544 24.463 18.2258L16.6483 25.6301C16.6606 25.4802 16.6668 25.3287 16.6668 25.1757C16.6668 22.9127 15.296 20.9691 13.3542 20.1579Z"
          fill="#4C5865"/>
    <path d="M16.3849 36L14.5383 31.9139C14.3966 31.6003 14.0315 31.4626 13.723 31.6069C13.4145 31.751 13.2793 32.1221 13.421 32.4357L15.0317 36H16.3849Z"
          fill="#4C5865"/>
    <path fill-rule="evenodd" clip-rule="evenodd"
          d="M14.0511 25.1757C14.0511 23.6523 12.8319 22.4129 11.3334 22.4129C9.83478 22.4129 8.61564 23.6524 8.61564 25.1757C8.61564 26.6991 9.83478 27.9386 11.3334 27.9386C12.8319 27.9386 14.0511 26.6992 14.0511 25.1757ZM9.84511 25.1757C9.84511 24.3415 10.5128 23.6629 11.3333 23.6629C12.1538 23.6629 12.8214 24.3416 12.8214 25.1757C12.8214 26.0099 12.1538 26.6886 11.3333 26.6886C10.5128 26.6886 9.84511 26.01 9.84511 25.1757Z"
          fill="#4C5865"/>
</svg>
