<svg width="48" height="48" viewBox="0 0 48 48" fill="none" xmlns="http://www.w3.org/2000/svg">
    <rect width="48" height="48" rx="4" fill="#333940"/>
    <path fill-rule="evenodd" clip-rule="evenodd"
          d="M24 39C32.2843 39 39 32.2843 39 24C39 15.7157 32.2843 9 24 9C15.7157 9 9 15.7157 9 24C9 32.2843 15.7157 39 24 39ZM24 40C32.8366 40 40 32.8366 40 24C40 15.1634 32.8366 8 24 8C15.1634 8 8 15.1634 8 24C8 32.8366 15.1634 40 24 40Z"
          fill="#4C5865"/>
    <path d="M31.9174 21.2461C31.9589 21.1287 31.9941 21.0092 32.0229 20.8881C32.0889 20.536 32.1452 20.4883 32.495 20.4954C32.5535 20.4963 32.61 20.4741 32.652 20.4335C32.6703 20.4115 32.6427 20.3149 32.6088 20.2914C32.5129 20.225 32.4078 20.1489 32.2974 20.1306C31.9908 20.0803 31.9707 20.0441 32.0855 19.7666C32.1329 19.6525 32.1228 19.5127 32.1303 19.3844C32.1489 19.0793 32.3168 18.8377 32.4883 18.6094C32.6002 18.4603 32.8299 18.5527 32.8937 18.7496C32.922 18.8377 32.9523 18.9249 32.9817 19.0126L33.0321 18.9995C32.9821 18.7914 32.9321 18.5833 32.878 18.3588C32.9489 18.3517 32.9877 18.3364 33.0175 18.3469C33.157 18.3954 33.2532 18.3469 33.3382 18.235C33.3987 18.1544 33.4591 18.1052 33.5516 18.2313C33.9154 18.7174 34.1474 19.2893 34.2251 19.8916C34.2619 20.1487 34.3149 20.4031 34.384 20.6535C34.4899 21.0592 34.4876 21.468 34.4634 21.8976C34.3276 21.296 34.1145 20.7144 33.8294 20.1676L33.7846 20.184C33.8372 20.319 33.8872 20.4547 33.942 20.5886C34.1703 21.1424 34.1408 21.6854 33.8771 22.2202C33.8503 22.275 33.8421 22.3388 33.8178 22.3951C33.7664 22.5122 33.7705 22.6502 33.8902 22.6752C33.9674 22.6912 34.0916 22.5894 34.1598 22.5103C34.2281 22.4313 34.2422 22.3183 34.2889 22.2239C34.3203 22.1683 34.356 22.1153 34.3959 22.0654L34.4634 22.0848C34.4462 22.2243 34.438 22.3656 34.4093 22.5029C34.372 22.6785 34.3243 22.8523 34.2713 23.025C34.2184 23.1977 34.1222 23.229 34.0006 23.1134C33.879 22.9978 33.7328 22.9038 33.7022 22.7031C33.6866 22.6021 33.5687 22.5167 33.4971 22.4242C33.4307 22.5212 33.3595 22.6155 33.3006 22.7166C33.2811 22.7562 33.2782 22.8019 33.2924 22.8437C33.3968 23.1145 33.4229 23.4169 33.6687 23.6291C33.8458 23.7824 33.7727 23.9771 33.5448 24.0491C33.518 24.0597 33.4939 24.0761 33.474 24.097C33.4542 24.1179 33.4392 24.1429 33.43 24.1703C33.3464 24.5518 33.0291 24.6286 32.7255 24.7077C32.533 24.7522 32.3367 24.7779 32.1392 24.7845C32.0889 24.7875 31.9964 24.7278 31.9875 24.6838C31.9479 24.5024 31.9249 24.3178 31.9185 24.1322C31.9088 23.744 31.9155 23.3558 31.9155 22.9661C32.1765 22.9437 32.2396 22.868 32.1765 22.5931C32.1281 22.3847 32.0606 22.1807 31.9867 21.9248L31.7342 22.4637C31.6473 22.3578 31.5634 22.2892 31.5235 22.2027C31.4116 21.9606 31.2998 21.7156 31.2315 21.4605C31.1916 21.3113 31.2248 21.1417 31.2446 20.9832C31.249 20.9459 31.3274 20.8944 31.377 20.8877C31.5511 20.8631 31.7361 20.991 31.8051 21.1648C31.8185 21.1911 31.8343 21.2161 31.8525 21.2394L31.9174 21.2461ZM33.5381 19.8562L33.5971 19.8136C33.4931 19.6692 33.3892 19.525 33.2853 19.381L33.2264 19.4235C33.3298 19.5675 33.4337 19.7117 33.5381 19.8562Z"
          fill="#4C5865"/>
    <path d="M30.7896 19.7057C30.8198 19.4447 30.8287 19.2429 30.8701 19.0501C30.8957 18.9425 30.9494 18.8435 31.0256 18.7633C31.2494 18.528 31.4358 18.2785 31.5477 17.963C31.6529 17.6602 31.8871 17.4532 32.2351 17.4606C32.332 17.4606 32.4588 17.5173 32.5129 17.5912C32.5476 17.6374 32.4995 17.7814 32.4476 17.8522C32.2768 18.0805 32.2019 18.3438 32.0986 18.6026C31.8897 19.1247 31.924 19.6841 31.779 20.214C31.7469 20.3311 31.6525 20.5146 31.5753 20.5206C31.3467 20.5385 31.0659 20.5668 30.9492 20.2901C30.8626 20.0872 30.8306 19.8635 30.7896 19.7057Z"
          fill="#4C5865"/>
    <path d="M30.5811 30.1401C30.5595 30.2729 30.5628 30.3669 30.5278 30.443C30.432 30.664 30.3218 30.8784 30.1977 31.0848C30.1179 31.2116 29.9829 31.3022 29.8863 31.4204C29.7444 31.5899 29.6122 31.7672 29.4902 31.9515C29.3541 32.1637 29.2538 32.399 29.1102 32.6064C29.0095 32.7507 28.8689 32.8704 28.7336 32.9864C28.5341 33.1614 28.3257 33.3259 28.1093 33.4794C28.003 33.554 27.8586 33.5704 27.7438 33.6345C27.6487 33.6879 27.5271 33.7565 27.4947 33.8464C27.3988 34.1123 27.1363 34.0828 26.9528 34.1887C26.9498 34.1906 26.8629 34.0895 26.8745 34.0679C26.967 33.8829 27.0723 33.7046 27.1896 33.5342C27.655 32.8917 28.2894 32.4177 28.8548 31.8739C29.1792 31.5621 29.4757 31.2209 29.7871 30.895C30.0083 30.663 30.2324 30.434 30.4565 30.205C30.4718 30.1894 30.4961 30.183 30.5811 30.1401Z"
          fill="#4C5865"/>
    <path d="M15.4317 19.5422C15.5018 19.5478 15.5414 19.5389 15.5626 19.5549C15.7465 19.6929 15.9337 19.8279 16.106 19.9797C16.1742 20.0401 16.1433 20.1091 16.0482 20.1483C15.7573 20.2691 15.4705 20.4004 15.1796 20.5212C14.9931 20.5991 14.7302 20.4347 14.6553 20.2001C14.5874 19.9883 14.6925 19.8245 14.92 19.757C15.0379 19.722 15.1475 19.6593 15.2613 19.6109C15.3284 19.5821 15.3963 19.5564 15.4317 19.5422Z"
          fill="#4C5865"/>
    <path d="M29.5433 33.6868C29.3427 33.9657 29.1419 34.2447 28.941 34.5236C28.7881 34.7355 28.6471 34.9574 28.4771 35.1543C28.3288 35.3197 28.1648 35.4703 27.9874 35.604C27.9072 35.6663 27.8162 35.6413 27.8252 35.5037C27.8308 35.4176 27.83 35.3311 27.839 35.2453C27.8584 35.0588 27.8599 34.8925 28.0877 34.7791C28.3085 34.6698 28.47 34.4435 28.6654 34.2797C28.9048 34.0784 29.1502 33.8856 29.3979 33.6916C29.4329 33.6713 29.4705 33.6558 29.5097 33.6458L29.5433 33.6868Z"
          fill="#4C5865"/>
    <path d="M29.6167 32.7516C29.5048 32.9112 29.4235 33.0428 29.3288 33.1659C29.2005 33.3322 29.0677 33.4948 28.9267 33.6507C28.8999 33.6809 28.8369 33.6791 28.7906 33.6921C28.7712 33.6198 28.7134 33.5273 28.7392 33.4788C28.816 33.3334 28.9066 33.1846 29.0271 33.076C29.1658 32.9511 29.3414 32.8672 29.5026 32.7676C29.5201 32.7579 29.5469 32.7617 29.6167 32.7516Z"
          fill="#4C5865"/>
    <path d="M15.5065 21.6273L15.577 21.4076C15.6543 21.4312 15.7299 21.4605 15.803 21.4952C15.8879 21.5445 15.9682 21.6014 16.0428 21.6653C16.0763 21.6936 16.1173 21.7466 16.111 21.7809C16.1047 21.8152 16.0487 21.8484 16.0073 21.8652C15.9501 21.8869 15.8903 21.9008 15.8294 21.9066C15.5688 21.9342 15.5218 21.8909 15.5065 21.6273Z"
          fill="#4C5865"/>
    <path d="M17.092 21.403C17.1487 21.2072 17.2039 21.0185 17.258 20.8313C17.4612 20.8619 17.6388 21.0178 17.6287 21.1446C17.6142 21.3381 17.4571 21.4183 17.092 21.403Z"
          fill="#4C5865"/>
    <path d="M16.7562 21.5277C16.8797 21.5482 16.9681 21.5493 17.0441 21.5799C17.0697 21.5923 17.0922 21.6101 17.1102 21.6322C17.1281 21.6542 17.1409 21.6799 17.1478 21.7075C17.153 21.741 17.0922 21.816 17.0568 21.8193C16.9699 21.8268 16.8558 21.8313 16.8002 21.7821C16.7529 21.7373 16.77 21.6206 16.7562 21.5277Z"
          fill="#4C5865"/>
    <path d="M16.3804 21.0595C16.4124 20.9312 16.4236 20.8007 16.5847 20.7872C16.5959 20.7872 16.6351 20.8697 16.622 20.8991C16.5851 20.995 16.587 21.162 16.3804 21.0595Z"
          fill="#4C5865"/>
    <path d="M17.7132 26.3667L17.9597 26.4939C17.9384 26.5245 17.9224 26.577 17.8948 26.5815C17.771 26.6031 17.699 26.5457 17.7132 26.3667Z"
          fill="#4C5865"/>
    <path d="M23.1221 18.8798C23.0606 18.7992 23.0072 18.7459 23.0143 18.7358C23.079 18.6477 23.1502 18.5646 23.2273 18.4871C23.2617 18.5072 23.293 18.5324 23.3201 18.5616C23.2679 18.656 23.2082 18.7474 23.1221 18.8798Z"
          fill="#4C5865"/>
    <path fill-rule="evenodd" clip-rule="evenodd"
          d="M14.302 17.5457C14.2744 17.5987 14.2501 17.6535 14.2296 17.7099C14.1954 17.8167 14.1862 17.9313 14.177 18.0461C14.1722 18.1056 14.1674 18.1652 14.1591 18.2238C14.1378 18.3774 14.249 18.5904 14.4138 18.6124C14.4888 18.6224 14.6029 18.5188 14.6607 18.4389C14.8173 18.2234 15.0642 18.1458 15.2828 18.1179C15.5227 18.087 15.7716 18.1168 16.0188 18.1465C16.0882 18.1548 16.1574 18.1631 16.2263 18.1701C16.4691 18.1951 16.6887 18.4293 16.7633 18.6799C16.7827 18.7455 16.8696 18.8022 16.9375 18.8395C16.9771 18.8623 17.0222 18.8779 17.0669 18.8934C17.1312 18.9157 17.1948 18.9378 17.2403 18.9805C17.6267 19.3411 17.8019 19.8199 17.9444 20.3107C17.9959 20.475 18.0174 20.6472 18.0078 20.819C17.9757 21.1896 17.9282 21.5587 17.8806 21.928C17.8668 22.0352 17.853 22.1424 17.8396 22.2496C17.8313 22.316 17.824 22.3828 17.8166 22.4497C17.7952 22.6459 17.7736 22.8431 17.7255 23.0328C17.6914 23.1667 17.6374 23.2954 17.5833 23.4243C17.5396 23.5283 17.4959 23.6324 17.4626 23.7395C17.4273 23.8535 17.4047 23.9715 17.3822 24.0896C17.3627 24.1913 17.3432 24.2931 17.3156 24.3925C17.2451 24.6472 17.3369 24.9172 17.5748 25.0067C17.8047 25.0941 18.0496 25.1351 18.2953 25.1274C18.5411 25.1197 18.7829 25.0635 19.0069 24.962C19.1986 24.8705 19.4113 24.8319 19.623 24.8501C19.6623 24.8536 19.7011 24.8664 19.7398 24.8793C19.7847 24.8942 19.8294 24.909 19.8747 24.909C20.3226 24.9167 20.7647 25.011 21.1766 25.1869C21.2777 25.2283 21.4623 25.1902 21.5496 25.1164C21.6368 25.0425 21.704 24.8617 21.6741 24.7584C21.6265 24.5935 21.6755 24.4699 21.7268 24.3408C21.7361 24.3174 21.7455 24.2938 21.7543 24.2698C21.7633 24.2719 21.7714 24.273 21.7782 24.2739C21.7901 24.2755 21.7984 24.2766 21.8017 24.2814C22.0556 24.6379 22.2458 25.0067 22.1302 25.4718C22.1121 25.559 22.0763 25.6415 22.025 25.7142C21.9737 25.787 21.9079 25.8484 21.8319 25.8947C21.6626 25.9969 21.4847 26.1035 21.2982 26.1531C21.1395 26.1948 20.97 26.1978 20.8019 26.2007C20.7594 26.2014 20.7171 26.2021 20.675 26.2035C20.6513 26.1996 20.629 26.1898 20.61 26.175C20.591 26.1602 20.5761 26.1409 20.5665 26.1188C20.5579 26.0875 20.5978 26.0275 20.6325 26.0032C20.7063 25.9466 20.7883 25.9017 20.8757 25.8701C20.8781 25.8693 20.8804 25.8686 20.8828 25.8678C20.9903 25.8342 21.0844 25.8046 21.0457 25.6612C21.0142 25.5442 20.9301 25.5536 20.8478 25.5628C20.8318 25.5646 20.8158 25.5664 20.8003 25.5673C20.7372 25.5707 20.674 25.5739 20.6107 25.5772C20.39 25.5885 20.1693 25.5999 19.9489 25.6176C19.8328 25.6334 19.7178 25.6559 19.6043 25.6851C19.6143 25.7203 19.6267 25.7547 19.6416 25.788C19.7874 26.0237 19.7774 26.0342 19.5637 26.2031C19.5297 26.2315 19.502 26.2666 19.4821 26.3062C19.4622 26.3458 19.4506 26.389 19.4481 26.4332C19.4525 26.5324 19.4752 26.6306 19.4979 26.729C19.5114 26.7875 19.5249 26.8461 19.5346 26.905C19.5663 27.0982 19.4719 27.1735 19.2896 27.1459C19.191 27.1319 19.0908 27.154 19.0073 27.2082C18.9129 27.2779 18.8965 27.3965 18.9808 27.5065C18.9961 27.5332 19.0054 27.5628 19.008 27.5934C19.024 27.6699 19.0389 27.7468 19.0539 27.8237C19.0868 27.9929 19.1197 28.1623 19.1635 28.3285C19.1978 28.4586 19.2851 28.5724 19.4447 28.5452C19.5976 28.5194 19.7475 28.4616 19.7028 28.2584C19.6608 28.0561 19.6058 27.8568 19.538 27.6617C19.476 27.4901 19.5835 27.4092 19.692 27.3503C19.8236 27.2789 19.8896 27.393 19.9467 27.4916L19.9482 27.4942C19.9583 27.5116 19.9684 27.529 19.9786 27.5464C20.021 27.6188 20.0634 27.6914 20.1022 27.7657C20.1199 27.7989 20.1397 27.8319 20.1596 27.865C20.2138 27.9553 20.2684 28.0461 20.2801 28.1416C20.3051 28.349 20.4065 28.3732 20.5811 28.3654C21.0908 28.3426 21.6006 28.3307 22.1107 28.3188L22.1589 28.3177C22.223 28.316 22.2876 28.3199 22.3521 28.3238C22.4491 28.3297 22.5459 28.3355 22.6404 28.3225C22.8845 28.2844 23.1265 28.2337 23.3654 28.1707C23.4344 28.1538 23.5015 28.129 23.5687 28.1041C23.6259 28.0829 23.6832 28.0617 23.7417 28.0454C23.9304 27.9932 24.1202 27.9447 24.3123 27.9074C24.3524 27.8997 24.3976 27.9149 24.4421 27.9299C24.4579 27.9352 24.4737 27.9405 24.4891 27.9447C24.6282 27.9824 24.7673 28.0204 24.9053 28.0622C24.9261 28.0685 24.9482 28.0739 24.9704 28.0794C25.0365 28.0956 25.104 28.1122 25.1462 28.1532C25.3498 28.3501 25.5363 28.5601 25.7227 28.7723C25.7366 28.7949 25.7449 28.8204 25.7471 28.8468C25.7493 28.8733 25.7453 28.8998 25.7354 28.9244C25.7168 28.9617 25.6459 29.0072 25.6086 28.999C25.4758 28.9694 25.3473 28.9301 25.2185 28.8908C25.1788 28.8787 25.1391 28.8665 25.0992 28.8547C25.0483 28.833 24.9955 28.8163 24.9414 28.8047C24.6075 28.7656 24.2699 28.8359 23.9793 29.005C23.8656 29.0763 23.7444 29.135 23.6179 29.1799C23.3057 29.2787 22.9992 29.3839 22.7307 29.58C22.6673 29.6267 22.5863 29.6789 22.5144 29.677C22.3301 29.6729 22.1787 29.7158 22.1041 29.8941C22.0405 30.0514 21.9894 30.2135 21.9512 30.3789C21.9415 30.4203 21.9867 30.4833 22.0202 30.5247C22.1586 30.694 22.3559 30.7197 22.5446 30.6761C22.6826 30.6444 22.7392 30.6858 22.7571 30.7977C22.7789 30.9506 22.7925 31.1046 22.7978 31.259C22.8056 31.4003 22.7366 31.4727 22.5912 31.4917C22.482 31.5062 22.3757 31.5375 22.2761 31.5846C22.1532 31.639 22.0389 31.7108 21.9367 31.7979C21.9057 31.826 21.8593 31.8442 21.8126 31.8626C21.6961 31.9084 21.5775 31.955 21.6909 32.157C21.6597 32.1718 21.6238 32.1816 21.5882 32.1913C21.4847 32.2194 21.3837 32.2469 21.409 32.3953C21.4407 32.5799 21.3329 32.637 21.1994 32.659C21.004 32.6911 20.9924 32.7925 21.0413 32.9521C21.0917 33.1164 21.1391 33.2817 21.1865 33.447C21.2287 33.5944 21.2709 33.7418 21.3154 33.8886C21.3218 33.91 21.3458 33.9263 21.37 33.9425C21.3811 33.95 21.3921 33.9574 21.4015 33.9654C21.4105 33.9521 21.422 33.939 21.4335 33.9258C21.4582 33.8976 21.4828 33.8694 21.4828 33.8401C21.4877 33.708 21.4885 33.5757 21.4893 33.4435C21.4901 33.3212 21.4908 33.1989 21.4948 33.0767C21.496 33.0403 21.5155 33.0047 21.5349 32.969C21.544 32.9524 21.5531 32.9357 21.5604 32.9189C21.6086 32.9495 21.6549 32.9829 21.6991 33.0189C21.7414 33.0576 21.7823 33.098 21.8231 33.1383C21.896 33.2103 21.9688 33.2822 22.0493 33.3441C22.1321 33.406 22.1694 33.4549 22.1321 33.5582C22.0418 33.8069 22.0665 33.8494 22.3339 33.8897C22.4321 33.9003 22.5314 33.8985 22.6292 33.8845C22.7254 33.8756 22.8213 33.864 22.9171 33.8524C23.0585 33.8354 23.1999 33.8183 23.3419 33.8099C23.3867 33.807 23.4323 33.8304 23.4789 33.8542C23.5051 33.8677 23.5317 33.8813 23.5586 33.8904C23.5824 33.8987 23.6083 33.9103 23.6345 33.922C23.7015 33.952 23.7704 33.9827 23.8103 33.9613C23.9535 33.8852 24.1038 33.7842 24.1918 33.6533C24.275 33.5294 24.3444 33.5183 24.4764 33.5261C24.6323 33.535 24.7934 33.503 24.9478 33.4686C25.02 33.4528 25.0889 33.4211 25.1577 33.3895C25.1908 33.3742 25.2239 33.359 25.2573 33.3456C25.2927 33.3312 25.3338 33.32 25.3749 33.3087C25.4642 33.2843 25.5533 33.2599 25.5821 33.2042C25.6608 33.0521 25.7686 32.9693 25.9077 32.8947C25.981 32.8487 26.0412 32.7844 26.0822 32.7082C26.1285 32.628 26.1285 32.5434 26.0166 32.496C25.7928 32.4028 25.7809 32.3562 25.9525 32.179C25.997 32.1333 26.0591 32.1035 26.1206 32.0739C26.1414 32.0638 26.1622 32.0538 26.1822 32.0433C26.2484 32.0082 26.3154 31.9741 26.3824 31.94C26.467 31.8969 26.5517 31.8539 26.6349 31.8087C26.6793 31.7846 26.7223 31.7575 26.7652 31.7303C26.8373 31.6847 26.9093 31.6392 26.9874 31.6088C27.0136 31.5986 27.04 31.5887 27.0663 31.5789C27.2606 31.5064 27.4518 31.435 27.5468 31.2176C27.5557 31.1965 27.5767 31.1815 27.5978 31.1665C27.6084 31.1589 27.619 31.1514 27.6281 31.143C27.6654 31.109 27.7034 31.0754 27.7413 31.0419C27.8351 30.9589 27.9289 30.8759 28.0144 30.7854C28.1017 30.6929 28.1584 30.6966 28.2057 30.8085C28.2327 30.8723 28.2549 30.9381 28.2804 31.0137C28.2926 31.05 28.3056 31.0884 28.3202 31.13C28.4194 30.8223 28.5597 30.5777 28.8207 30.418C28.8353 30.4067 28.8472 30.3923 28.8557 30.3759C28.8642 30.3595 28.8691 30.3414 28.8699 30.3229C28.8724 30.1747 28.9712 30.0943 29.069 30.0149C29.076 30.0092 29.083 30.0035 29.09 29.9977C29.1127 29.9791 29.1373 29.9605 29.1622 29.9416C29.2511 29.8744 29.3443 29.8039 29.3734 29.7151C29.4463 29.4985 29.4923 29.2734 29.5383 29.0478C29.5533 28.9745 29.5682 28.9013 29.5841 28.8282C29.5902 28.801 29.5902 28.773 29.5901 28.7451C29.5901 28.7167 29.59 28.6886 29.5964 28.6615C29.6175 28.5728 29.6404 28.4843 29.6634 28.3958C29.7453 28.0797 29.8274 27.7626 29.8254 27.4308C29.8235 27.0724 29.8157 26.7137 29.7974 26.356C29.7948 26.3083 29.7225 26.2531 29.6703 26.2214C29.5513 26.1487 29.4655 26.0726 29.4894 25.9107C29.4981 25.8512 29.4827 25.7882 29.4695 25.734C29.4641 25.7121 29.4591 25.6917 29.4562 25.6735H29.1545C29.1619 25.6447 29.169 25.6157 29.1761 25.5867C29.1912 25.5255 29.2062 25.4642 29.2242 25.4039C29.2419 25.3451 29.2667 25.2854 29.2915 25.2258C29.3447 25.0981 29.3977 24.9707 29.3801 24.8535C29.3557 24.6911 29.2764 24.5371 29.197 24.3829C29.1613 24.3136 29.1256 24.2442 29.0948 24.174C29.0847 24.1509 29.0732 24.1277 29.0617 24.1045C29.0302 24.0413 28.9986 23.9776 28.9945 23.9129C28.9725 23.556 28.9617 23.1984 28.9572 22.8407C28.9556 22.7303 28.9615 22.6197 28.9673 22.509C28.9725 22.4107 28.9777 22.3124 28.9777 22.2142C28.9777 22.1889 28.9781 22.163 28.9785 22.1369C28.9804 22.0128 28.9825 21.8835 28.9341 21.7808C28.8647 21.6331 28.886 21.55 29.002 21.4612C29.1179 21.3725 29.1672 21.2628 29.1851 21.1136C29.201 20.9809 29.2356 20.8506 29.2702 20.7202C29.2858 20.6616 29.3013 20.603 29.3152 20.5442C29.3227 20.5217 29.3247 20.4978 29.3208 20.4744C29.3008 20.4072 29.2794 20.3401 29.258 20.2732C29.2402 20.2176 29.2225 20.162 29.2056 20.1063C29.1094 19.7927 29.2045 19.4593 29.4349 19.3799C29.5558 19.3381 29.583 19.2777 29.5886 19.1658C29.5947 19.0469 29.6048 18.9282 29.6149 18.8096C29.6252 18.6882 29.6355 18.5669 29.6415 18.4453C29.6432 18.4088 29.6277 18.3717 29.6121 18.3344C29.6036 18.3141 29.5951 18.2937 29.5893 18.2734C29.5819 18.2469 29.5733 18.2205 29.5647 18.1941C29.5432 18.1277 29.5216 18.0613 29.5181 17.994C29.5164 17.9625 29.5149 17.931 29.5134 17.8995C29.5071 17.7705 29.5009 17.6423 29.4841 17.5168C28.9539 17.1476 28.0375 16.6978 26.4954 16.3811H25.9677C26.1 16.5236 26.1939 16.6973 26.2407 16.886C26.2581 16.9497 26.3274 16.9993 26.405 17.0548C26.4424 17.0815 26.4818 17.1097 26.5182 17.1415C26.5008 17.1495 26.4825 17.1602 26.4647 17.1706C26.4259 17.1932 26.3892 17.2146 26.369 17.2042C26.2456 17.1408 26.1165 17.0729 26.0196 16.9763C25.8834 16.8425 25.7577 16.6968 25.632 16.551C25.5826 16.4937 25.5331 16.4363 25.4829 16.3796H22.4249C22.3466 16.4078 22.2682 16.4358 22.1898 16.4638C21.9705 16.5422 21.7512 16.6205 21.5339 16.7029C21.4892 16.72 21.4477 16.7463 21.4064 16.7726C21.3599 16.8022 21.3135 16.8316 21.2628 16.8476L21.246 16.8529C21.0475 16.9158 20.8457 16.9796 20.6404 17.005C20.5086 17.0214 20.3749 17.0201 20.241 17.0189C20.146 17.018 20.0509 17.0171 19.9564 17.0225C19.9285 17.0241 19.9031 17.0493 19.8769 17.0754C19.8582 17.094 19.8391 17.113 19.8184 17.124L19.817 17.1247C19.7675 17.1512 19.6965 17.1891 19.6569 17.1717C19.604 17.1486 19.5324 17.071 19.5383 17.0263C19.5533 16.9161 20.0562 16.566 20.5534 16.2199C20.6601 16.1456 20.7666 16.0715 20.8679 16C16.9764 16.1264 15.1339 16.9507 14.302 17.5457ZM24.071 18.2174C24.1395 18.2256 24.2086 18.2294 24.2776 18.2286L24.024 17.9549L24.0486 17.9112L24.9149 18.2096C24.9205 18.2118 24.9299 18.2156 24.9299 18.2204C24.9475 18.2743 24.9661 18.328 24.9846 18.3818C25.0317 18.5179 25.0788 18.654 25.1104 18.7936C25.1245 18.8548 25.1117 18.9223 25.0977 18.9965C25.0909 19.0321 25.0839 19.0693 25.0794 19.108C24.771 19.2859 24.5107 19.2486 24.269 18.9652C24.1769 18.8566 24.0848 18.8533 23.9815 18.9428C23.9786 18.9452 23.9754 18.9477 23.972 18.9503C23.961 18.9587 23.9488 18.9681 23.9442 18.9801C23.8453 19.2457 23.6124 19.3144 23.3852 19.3816C23.3511 19.3916 23.3171 19.4017 23.2837 19.4123C23.1774 19.4426 23.0634 19.4311 22.9652 19.3802C22.7908 19.2756 22.6295 19.1504 22.4849 19.0073C22.3697 18.8947 22.2671 18.873 22.1414 18.9607C21.9729 19.0789 21.8121 19.2046 21.7864 19.4347C21.7686 19.5665 21.8031 19.7 21.8826 19.8067C21.9621 19.9133 22.0801 19.9846 22.2115 20.0053C22.2397 20.0143 22.2667 20.0268 22.2917 20.0426C22.125 20.2544 21.9729 20.2731 21.7323 20.1082C21.7199 20.0997 21.7079 20.0912 21.6961 20.0829C21.5883 20.0067 21.5018 19.9455 21.3336 20.0508C21.1032 20.1951 20.9294 20.056 20.9234 19.7849C20.9218 19.712 20.9176 19.6391 20.9133 19.5662C20.9079 19.473 20.9025 19.3797 20.9025 19.2866C20.9025 19.2203 20.9191 19.155 20.951 19.0968C20.9803 19.0459 21.0161 18.9989 21.0519 18.9518C21.0841 18.9095 21.1163 18.8671 21.1438 18.822C21.4276 18.3569 21.8505 18.0824 22.36 17.9247C22.3716 17.9211 22.386 17.9262 22.4065 17.9334C22.4182 17.9375 22.4318 17.9424 22.448 17.9467L22.2376 18.1331C22.2393 18.1436 22.2409 18.1539 22.2425 18.1642C22.2441 18.1746 22.2457 18.185 22.2473 18.1954C22.2974 18.1975 22.3476 18.2014 22.3978 18.2053C22.5085 18.2138 22.6194 18.2224 22.7284 18.2118L22.7429 18.2104C23.1856 18.168 23.6283 18.1256 24.071 18.2174Z"
          fill="#4C5865"/>
</svg>
