<svg width="48" height="48" viewBox="0 0 48 48" fill="none" xmlns="http://www.w3.org/2000/svg">
    <rect width="48" height="48" rx="4" fill="#333940"/>
    <path d="M32.4 14.274V12H31.6V14.032C31.4675 14.0118 31.334 14.0013 31.2 14H30.4V12H29.6V14H28.4V12H27.6V14H26.4V12H25.6V14H24.4V12H23.6V14H22.4V12H21.6V14H20.4V12H19.6V14H18.4V12H17.6V14H16.8C16.666 14.0013 16.5325 14.0118 16.4 14.032V12H15.6V14.274C15.0194 14.5514 14.5514 15.0194 14.274 15.6H12V16.4H14.032C14.0118 16.5325 14.0013 16.666 14 16.8V17.6H12V18.4H14V19.6H12V20.4H14V21.6H12V22.4H14V23.6H12V24.4H14V25.6H12V26.4H14V27.6H12V28.4H14V29.6H12V30.4H14V31.2C14.0013 31.334 14.0118 31.4675 14.032 31.6H12V32.4H14.274C14.5514 32.9806 15.0194 33.4486 15.6 33.726V36H16.4V33.968C16.5325 33.9883 16.666 33.9988 16.8 34H17.6V36H18.4V34H19.6V36H20.4V34H21.6V36H22.4V34H23.6V36H24.4V34H25.6V36H26.4V34H27.6V36H28.4V34H29.6V36H30.4V34H31.2C31.334 33.9988 31.4675 33.9883 31.6 33.968V36H32.4V33.726C32.9806 33.4486 33.4486 32.9806 33.726 32.4H36V31.6H33.968C33.9883 31.4675 33.9988 31.334 34 31.2V30.4H36V29.6H34V28.4H36V27.6H34V26.4H36V25.6H34V24.4H36V23.6H34V22.4H36V21.6H34V20.4H36V19.6H34V18.4H36V17.6H34V16.8C33.9988 16.666 33.9883 16.5325 33.968 16.4H36V15.6H33.726C33.4486 15.0194 32.9806 14.5514 32.4 14.274ZM33.2 31.2C33.1986 32.304 32.304 33.1986 31.2 33.2H16.8C15.696 33.1986 14.8014 32.304 14.8 31.2V16.8C14.8014 15.696 15.696 14.8014 16.8 14.8H31.2C32.304 14.8014 33.1986 15.696 33.2 16.8V31.2Z"
          fill="#4C5865"/>
    <path d="M30.8 16H17.2C16.5374 16 16 16.5374 16 17.2V30.8C16 31.4626 16.5374 32 17.2 32H30.8C31.4626 32 32 31.4626 32 30.8V17.2C32 16.5374 31.4626 16 30.8 16ZM31.2 30.8C31.2 31.021 31.021 31.2 30.8 31.2H17.2C16.979 31.2 16.8 31.021 16.8 30.8V17.2C16.8 16.979 16.979 16.8 17.2 16.8H30.8C31.021 16.8 31.2 16.979 31.2 17.2V30.8Z"
          fill="#4C5865"/>
    <path d="M29.6 17.6H30.4V18.4H29.6V17.6Z" fill="#4C5865"/>
    <path d="M17.6 29.6H18.4V30.4H17.6V29.6Z" fill="#4C5865"/>
    <path d="M17.6 18.4V19.6H18.4V18.4H19.6V17.6H18.4C17.9581 17.6 17.6 17.9581 17.6 18.4Z" fill="#4C5865"/>
    <path d="M29.6 29.6H28.4V30.4H30.4V28.4H29.6V29.6Z" fill="#4C5865"/>
</svg>
